<?xml version="1.0" encoding="UTF-8"?>
<svg xmlns="http://www.w3.org/2000/svg" xmlns:xlink="http://www.w3.org/1999/xlink" width="80px" height="83px" viewBox="0 0 80 82" version="1.1">
<g id="surface1">
<path style=" stroke:none;fill-rule:nonzero;fill:rgb(100%,100%,100%);fill-opacity:1;" d="M 26.976562 0.0390625 C 23.109375 0.320312 20.058594 1.109375 16.871094 2.660156 C 14.953125 3.59375 13.191406 4.722656 11.65625 6.015625 C 10.769531 6.757812 8.003906 9.328125 7.207031 10.148438 C 3.742188 13.714844 1.386719 18.285156 0.460938 23.222656 C -0.0390625 25.894531 -0.109375 28.855469 0.257812 31.582031 C 1.328125 39.515625 5.886719 46.625 12.757812 51.078125 C 14.144531 51.972656 16.003906 52.933594 17.519531 53.542969 C 23.355469 55.882812 29.949219 56.136719 35.816406 54.253906 C 37.984375 53.554688 40.085938 52.5625 41.976562 51.347656 L 42.597656 50.941406 L 47.773438 56.144531 C 71.335938 79.808594 72.863281 81.332031 73.191406 81.53125 C 73.78125 81.878906 74.0625 81.957031 74.773438 81.957031 C 75.382812 81.960938 75.453125 81.941406 75.90625 81.730469 C 76.410156 81.5 76.46875 81.457031 78.179688 79.878906 C 79.320312 78.835938 79.457031 78.6875 79.65625 78.296875 C 80.136719 77.367188 80.066406 76.222656 79.480469 75.351562 C 79.378906 75.203125 73.25 69.007812 65.863281 61.582031 C 58.472656 54.164062 51.734375 47.386719 50.886719 46.535156 L 49.339844 44.976562 L 49.785156 44.480469 C 52.265625 41.683594 54.195312 38.089844 55.21875 34.382812 C 56.5625 29.488281 56.425781 24.144531 54.84375 19.28125 C 52.511719 12.109375 47.324219 6.144531 40.511719 2.820312 C 37.550781 1.378906 34.664062 0.539062 31.28125 0.152344 C 30.503906 0.0625 27.648438 -0.0117188 26.976562 0.0390625 Z M 27.765625 7.945312 C 32.007812 8.289062 35.808594 9.707031 39.144531 12.179688 C 44.441406 16.117188 47.660156 22.023438 47.980469 28.378906 C 48.226562 33.3125 46.828125 37.90625 43.910156 41.757812 C 43.019531 42.941406 42.433594 43.492188 41.300781 44.234375 C 38.542969 46.035156 35.445312 47.144531 32.164062 47.503906 C 30.484375 47.6875 28 47.605469 26.261719 47.308594 C 17.640625 45.835938 10.570312 39.128906 8.644531 30.597656 C 8.265625 28.878906 8.199219 28.265625 8.199219 26.042969 C 8.199219 24.234375 8.21875 23.882812 8.34375 23.082031 C 8.925781 19.410156 10.273438 16.246094 12.421875 13.53125 C 13.246094 12.484375 13.542969 12.183594 14.28125 11.664062 C 18.171875 8.910156 23.050781 7.566406 27.765625 7.945312 Z M 27.765625 7.945312 "/>
</g>
</svg>
